<svg width="98" height="24" viewBox="0 0 98 24" fill="none" xmlns="http://www.w3.org/2000/svg">
<mask id="mask0" mask-type="alpha" maskUnits="userSpaceOnUse" x="0" y="1" width="15" height="21">
<path fill-rule="evenodd" clip-rule="evenodd" d="M0 1.48755H14.9188V21.8652H0V1.48755Z" fill="white"/>
</mask>
<g mask="url(#mask0)">
<path fill-rule="evenodd" clip-rule="evenodd" d="M14.6647 2.91389C14.6647 2.37568 14.348 2.12179 13.9355 2.12179H11.8779C11.4029 2.12179 11.3384 2.40706 11.3384 2.85113C11.3384 6.30477 11.529 9.1565 11.529 11.3749C11.529 12.1356 11.4977 12.8013 11.4977 13.4032C11.4029 17.5234 10.9591 18.189 10.3257 18.189C9.94451 18.189 9.3111 17.3646 9.1537 16.2559L8.96311 11.6602C8.93182 11.2798 8.86923 10.8044 8.42547 10.773H7.60147C5.92313 10.773 5.57419 10.8367 5.51161 12.7699V13.0552C5.51161 13.4983 5.5429 14.1325 5.5429 14.7981C5.5429 16.5725 5.38454 18.6959 4.18031 18.6959C3.42079 18.6959 3.32597 16.8264 3.32597 15.4951C3.32597 12.4846 3.42079 6.87531 3.42079 3.54813C3.42079 3.32562 3.38855 2.24826 3.38855 2.0267C3.35726 1.74144 3.16762 1.48755 2.9135 1.48755H0.570459C0.126695 1.48755 0.0641124 1.90024 -0.000366211 2.27964V16.5088C0.253755 19.6154 1.26645 21.8652 4.33866 21.8652C5.44713 21.8652 6.33466 21.3574 7.03159 20.4075C7.09512 20.3437 7.41183 19.583 7.57018 19.583C8.013 19.583 9.53393 21.3574 10.7695 21.3574C13.176 21.3574 14.4751 19.4252 14.7918 16.6039C14.8857 13.6571 14.9188 11.3435 14.9188 9.47409C14.9188 5.73423 14.7918 3.89616 14.696 3.13545C14.696 3.00898 14.6647 2.97665 14.6647 2.91389Z" fill="#0BB2CD"/>
</g>
<path fill-rule="evenodd" clip-rule="evenodd" d="M48.1319 19.9734H47.7043C47.6739 19.9125 47.6123 19.8821 47.5819 19.7908L47.3676 14.2994C47.49 14.0864 47.5516 14.0864 47.7043 14.0864C49.5694 14.0864 50.3327 15.0924 50.455 16.709C50.4854 17.0142 50.4854 17.3194 50.4854 17.5334C50.4854 19.9125 49.4158 19.9734 48.1319 19.9734ZM47.032 9.7541C47.0016 9.32715 46.94 6.88716 46.94 6.39936V6.09412C46.94 5.81931 46.94 5.66717 47.2453 5.66717C48.2542 5.66717 49.5381 6.33755 49.5694 8.19844C49.5694 9.38801 48.4372 9.96806 47.3676 9.96806C47.215 9.96806 47.0623 9.9072 47.032 9.7541ZM49.9354 11.6759C51.6773 10.8524 52.3799 9.41845 52.4112 7.9246V7.83236C52.4112 4.29409 50.0274 2.46362 46.5123 2.46362H46.3293C45.9007 2.46362 44.0669 2.58534 43.9749 2.98186C43.9446 3.16538 43.9446 3.31752 43.9446 3.80628C43.9446 5.11756 44.0669 8.93064 44.4945 22.1699C44.5249 22.7186 44.8918 22.8412 45.4115 22.8412C46.6043 22.8412 48.8042 22.8412 49.9667 22.6882C53.1451 22.2916 53.4817 19.4247 53.5728 17.289V16.9533C53.5728 12.7133 49.9354 11.9811 49.9354 11.6759Z" fill="#F5A128"/>
<path fill-rule="evenodd" clip-rule="evenodd" d="M59.7002 2.20068H57.6777C57.4292 2.20068 57.2121 2.41844 57.2121 2.63524C57.0557 5.11897 56.9627 7.22995 56.8698 9.09275C56.7143 12.631 56.6204 15.2384 56.6204 17.3807C56.6204 19.0572 56.683 20.454 56.7759 21.9127C56.7759 22.1618 56.9627 22.4414 57.2425 22.4414L59.1711 22.1618C59.6689 22.0991 59.7619 21.7577 59.7619 21.3849L60.1971 2.88342C60.1971 2.54205 60.1042 2.20068 59.7002 2.20068Z" fill="#8A74B1"/>
<path fill-rule="evenodd" clip-rule="evenodd" d="M24.307 20.8496C23.6745 20.9589 22.934 20.6233 22.7491 20.0974C22.2465 17.7392 21.7923 15.1243 20.7369 9.05376L20.6744 8.69242C20.5122 7.76054 20.3804 6.82392 21.7658 6.58429C22.8799 6.39126 23.2298 6.79539 23.4716 7.65119L23.7428 9.21446C24.2709 12.2497 24.9119 16.4726 25.2988 19.5944C25.2789 20.3722 24.819 20.7611 24.307 20.8496ZM28.2402 16.8872C27.9159 14.838 27.6362 12.8744 27.3024 10.9508C27.0359 9.41795 26.7439 7.92029 26.3874 6.40362C25.8137 3.99501 23.3256 3.06313 21.2784 3.41782C16.7004 4.20991 17.3281 8.71429 17.9862 12.5017C18.5712 15.8678 19.4047 20.3047 20.3823 22.3643C21.2044 24.2348 23.5399 24.1092 24.9859 23.8591C28.8698 23.1869 28.6365 20.5957 28.262 17.007C28.262 17.007 28.2563 16.9775 28.2402 16.8872Z" fill="#8A74B1"/>
<path fill-rule="evenodd" clip-rule="evenodd" d="M80.2666 19.1173C79.6389 19.0326 79.0415 18.4963 79.0225 17.9467C79.2463 15.578 79.5905 12.9821 80.3908 6.95535L80.4382 6.59781C80.5615 5.6726 80.7141 4.75213 82.0881 4.93756C83.1937 5.0878 83.4033 5.57085 83.3777 6.44852L83.171 8.00038C82.7718 11.0138 82.1279 15.1777 81.5704 18.2301C81.3219 18.9566 80.7739 19.1857 80.2666 19.1173ZM85.1385 16.5565C85.4372 14.5321 85.7548 12.6008 86.008 10.6914C86.21 9.16997 86.3778 7.67421 86.4897 6.14043C86.6623 3.70424 84.5952 2.08772 82.5631 1.81387C78.0221 1.19959 77.2825 5.62504 76.7828 9.38392C76.3391 12.7254 75.8137 17.1489 76.1257 19.3778C76.3466 21.3813 78.5816 21.9566 80.0153 22.1506C83.8707 22.6717 84.4159 20.1642 85.1224 16.6763C85.1224 16.6763 85.1262 16.6459 85.1385 16.5565Z" fill="#E7578E"/>
<path fill-rule="evenodd" clip-rule="evenodd" d="M34.8819 18.7912C34.2352 18.7931 33.5572 18.3358 33.4614 17.7823C33.3571 15.3576 33.3429 12.6865 33.3107 6.48383L33.3088 6.11488C33.304 5.16304 33.3296 4.2112 34.7444 4.20644C35.8832 4.20169 36.1619 4.66192 36.2587 5.55195L36.2672 7.1485C36.2833 10.2503 36.2132 14.5493 36.0757 17.712C35.9258 18.4803 35.4043 18.7893 34.8819 18.7912ZM39.4475 15.5202C39.4674 13.432 39.5196 11.4361 39.5091 9.47058C39.5006 7.90446 39.4617 6.36972 39.3622 4.8036C39.1953 2.31702 36.8807 0.974359 34.7889 0.981966C30.1142 0.998131 29.9834 5.57478 30.0033 9.44301C30.0213 12.8824 30.1066 17.4257 30.7334 19.6347C31.236 21.6287 33.5752 21.8978 35.0516 21.8921C39.0189 21.8778 39.2209 19.2667 39.4484 15.6428C39.4484 15.6428 39.4475 15.6124 39.4475 15.5202Z" fill="#E7578E"/>
<path fill-rule="evenodd" clip-rule="evenodd" d="M93.4629 17.864C92.8295 17.8725 92.16 17.4304 92.0605 16.8893C91.9353 14.514 91.8955 11.8952 91.8035 5.81616L91.7978 5.45482C91.7836 4.52199 91.8007 3.58917 93.1869 3.57015C94.303 3.55494 94.5808 4.00281 94.6842 4.87478L94.7069 6.43899C94.7534 9.479 94.7268 13.6934 94.6225 16.7942C94.4831 17.5492 93.9749 17.8573 93.4629 17.864ZM97.9071 14.6138C97.9062 12.5665 97.9365 10.6096 97.9071 8.68403C97.8844 7.14834 97.8313 5.64403 97.7175 4.11119C97.5307 1.67596 95.2502 0.381791 93.2002 0.409367C88.6175 0.471175 88.535 4.95749 88.5909 8.74964C88.6421 12.1196 88.7701 16.5726 89.4054 18.7312C89.9175 20.6814 92.2122 20.9211 93.6591 20.9011C97.5487 20.8488 97.7203 18.288 97.9081 14.7336C97.9081 14.7336 97.9071 14.7032 97.9071 14.6138Z" fill="#8A74B1"/>
<path fill-rule="evenodd" clip-rule="evenodd" d="M67.4693 17.5098H67.0407C67.0104 17.4489 66.9488 17.4185 66.9184 17.3272L66.7041 11.8358C66.8264 11.6228 66.8881 11.6228 67.0407 11.6228C68.9059 11.6228 69.6692 12.6288 69.7915 14.2453C69.8218 14.5506 69.8218 14.8558 69.8218 15.0698C69.8218 17.4489 68.7532 17.5098 67.4693 17.5098ZM66.3685 7.29048C66.3381 6.86353 66.2765 4.42354 66.2765 3.93478V3.6305C66.2765 3.35569 66.2765 3.20355 66.5818 3.20355C67.5917 3.20355 68.8746 3.87392 68.9059 5.73482C68.9059 6.92439 67.7747 7.50443 66.7041 7.50443C66.5515 7.50443 66.3988 7.44357 66.3685 7.29048ZM69.2719 9.21224C71.0138 8.38877 71.7173 6.95483 71.7486 5.46097V5.36874C71.7486 1.83047 69.3639 0 65.8488 0H65.6658C65.2372 0 63.4034 0.121714 63.3114 0.518236C63.2811 0.701759 63.2811 0.853901 63.2811 1.34266C63.2811 2.65394 63.4034 6.46702 63.831 19.7063C63.8614 20.255 64.2293 20.3776 64.7489 20.3776C65.9408 20.3776 68.1416 20.3776 69.3032 20.2245C72.4816 19.828 72.8182 16.9611 72.9092 14.8254V14.4897C72.9092 10.2497 69.2719 9.51748 69.2719 9.21224Z" fill="#0BB2CD"/>
</svg>
